<svg xmlns="http://www.w3.org/2000/svg" width="24" height="24" viewBox="0 0 24 24">
    <g fill="none" fill-rule="evenodd">
        <g fill-rule="nonzero">
            <g>
                <path fill="#8DC640" d="M21.342 21.724c-3.668 2.995-15.12 2.995-18.714 0-3.668-2.994-3.293-15.794 0-19.162 3.294-3.369 15.42-3.369 18.714 0 3.293 3.368 3.668 16.168 0 19.162z" transform="translate(-1813 -999) translate(1813 999)"/>
                <g fill="#FFF" opacity=".2">
                    <path d="M12.06 16.485c-3.294 2.62-6.962 3.967-10.405 4.042C-.89 16.185-.365 5.63 2.628 2.562 5.323-.208 13.782-.732 18.648.99c1.197 4.94-1.273 11.228-6.588 15.495z" transform="translate(-1813 -999) translate(1813 999)"/>
                </g>
                <path fill="#FFF" d="M10.263 18.655c-.524 0-1.048-.224-1.347-.673l-4.192-5.39c-.599-.748-.449-1.796.3-2.395.748-.599 1.796-.45 2.395.3l2.844 3.667 6.288-8.159c.599-.748 1.647-.898 2.395-.3.749.6.899 1.648.3 2.396l-7.635 9.88c-.375.375-.824.674-1.348.674z" transform="translate(-1813 -999) translate(1813 999)"/>
            </g>
        </g>
    </g>
</svg>
