<svg xmlns="http://www.w3.org/2000/svg" width="24" height="24" viewBox="0 0 24 24">
    <g fill="none" fill-rule="evenodd">
        <g fill-rule="nonzero">
            <g>
                <g>
                    <path fill="#D34178" d="M21.342 21.724c-3.668 2.995-15.12 2.995-18.714 0-3.668-2.994-3.293-15.794 0-19.162 3.294-3.369 15.42-3.369 18.714 0 3.293 3.368 3.668 16.168 0 19.162z" transform="translate(-1814 -933) translate(1814 933)"/>
                    <path fill="#E84E89" d="M12.06 16.485c-3.294 2.62-6.962 3.967-10.405 4.042C-.89 16.185-.365 5.63 2.628 2.562 5.323-.208 13.782-.732 18.648.99c1.197 4.94-1.273 11.228-6.588 15.495z" transform="translate(-1814 -933) translate(1814 933)"/>
                </g>
                <g fill="#FFF">
                    <path d="M11.727 11.735c-.45.45-1.198.45-1.722 0L6.038 7.768 2.07 11.735c-.449.45-1.272.45-1.721 0-.45-.45-.45-1.273 0-1.722L4.39 6.046.349 2.08c-.45-.45-.45-1.198 0-1.722.449-.449 1.272-.449 1.721 0L6.038 4.4 10.005.357c.449-.449 1.198-.449 1.722 0 .449.45.449 1.273 0 1.722L7.759 6.046l3.968 3.967c.524.524.524 1.273 0 1.722z" transform="translate(-1814 -933) translate(1814 933) translate(5.947 5.947)"/>
                </g>
            </g>
        </g>
    </g>
</svg>
